# xmcd CD database file
# Copyright (C) 1997 Ti Kan
# 
# Track frame offsets:
#     150
#     12662
#     34337
#     44347
#     59720
#     90842
#     113190
#     130260
#     146835
#     163987
#     177390
#     191927
#     207940
#     220940
# 
# Disc length: 3201 seconds
# 
# Revision: 1
# Processed by: cddbd v1.4b41PL1 Copyright (c) Steve Scherf et al.
# Submitted via: DiscPlay 4.0.4
# 
DISCID=dd0c7f0e
DTITLE=Gal Costa - Cole  o obras-primas
DYEAR=1900
DGENRE=
TTITLE0=Como 2 e 2
TTITLE1=Antonico
TTITLE2=Falsa baiana
TTITLE3=Acontece
TTITLE4=India
TTITLE5=Detalhes
TTITLE6=luxo s 
TTITLE7=Faltando um peda o
TTITLE8=De amor eu morrerei
TTITLE9=Modinha para Gabriela
TTITLE10=Na baixa do Sapateiro
TTITLE11=Que pena (Ela j  n o gosta mais de mim)
TTITLE12=Camisa amarela
TTITLE13=Divino, maravilhoso
EXTD=
EXTT0=
EXTT1=
EXTT2=
EXTT3=
EXTT4=
EXTT5=
EXTT6=
EXTT7=
EXTT8=
EXTT9=
EXTT10=
EXTT11=
EXTT12=
EXTT13=
PLAYORDER=
